<svg width="170" height="236" viewBox="0 0 170 236" fill="none" xmlns="http://www.w3.org/2000/svg">
<path d="M36.5 53.3107C36.5 49.8254 39.3491 47 42.8636 47H58.1364C61.6509 47 64.5 49.8254 64.5 53.3107V105.689C64.5 109.175 61.6509 112 58.1364 112H42.8636C39.3491 112 36.5 109.175 36.5 105.689V53.3107Z" fill="url(#paint0_linear_1095_3402)"/>
<path fill-rule="evenodd" clip-rule="evenodd" d="M81.0777 31.9401L81.0763 32.0351C77.6196 31.983 74.235 33.0304 71.4072 35.0274C68.5793 37.0244 66.4531 39.8687 65.3328 43.153C64.2126 46.4374 64.1558 49.9934 65.1706 53.3121C66.1854 56.6308 68.2197 59.5421 70.9824 61.6291C73.7451 63.7162 77.0944 64.872 80.5511 64.9312C84.0077 64.9903 87.3943 63.9498 90.2263 61.9586C93.0582 59.9673 95.1901 57.1274 96.317 53.8454C97.4439 50.5633 97.5078 47.0074 96.4997 43.6866C105.936 43.3369 115.2 40.4842 123.234 35.5026C125.962 44.4892 125.789 54.112 122.74 62.9937C119.69 71.8754 113.921 79.5606 106.257 84.9493C98.5935 90.3379 89.4288 93.1537 80.0746 92.9935C70.7205 92.8334 61.6566 89.7055 54.1804 84.0577C46.7042 78.4098 41.199 70.5316 38.4528 61.5506C35.7067 52.5697 35.8603 42.9465 38.8918 34.0586C41.9233 25.1707 47.6772 17.4737 55.3298 12.0695C62.8009 6.79348 71.7077 3.96676 80.8303 3.96682V3.87089H107.712C122.573 3.87089 131.096 1.2903 133.5 0C133.281 5.00939 121.698 21.6315 111.864 27.324C105.5 31.0073 95.4457 31.375 86.7246 31.6939C84.755 31.7659 82.8534 31.8354 81.0777 31.9401Z" fill="url(#paint1_linear_1095_3402)"/>
<path d="M38.7461 140.059V184.492H32.4473V140.059H38.7461ZM27.6621 144.16V149.141H23.707V168.428C25.6602 168.306 27.5889 168.11 29.4688 167.891L29.7617 172.529C20.2891 174.092 10.0352 174.238 1.88086 174.287L1.29492 169.209C2.90625 169.209 4.61523 169.185 6.42188 169.16V149.141H2.51562V144.16H27.6621ZM12.4766 169.014C14.1855 168.989 15.9189 168.916 17.6523 168.818V149.141H12.4766V169.014ZM55.8613 143.184C61.8672 143.184 66.335 148.14 67.2383 156.123H74.9531V140.059H81.1055V184.59H74.9531V161.104H67.2871C66.6279 169.648 62.0625 174.873 55.8613 174.873C49.123 174.873 44.2891 168.77 44.3379 159.004C44.2891 149.336 49.123 143.184 55.8613 143.184ZM55.8613 148.799C52.541 148.799 50.2461 152.412 50.2949 159.004C50.2461 165.645 52.541 169.209 55.8613 169.209C59.2305 169.209 61.4277 165.645 61.4277 159.004C61.4277 152.412 59.2305 148.799 55.8613 148.799ZM106.082 142.354C115.652 142.354 122.781 147.188 122.83 154.512C122.781 161.201 117.142 165.718 109.158 166.621V174.189H126.492V179.316H85.8184V174.189H102.957V166.572C94.998 165.718 89.3828 161.177 89.3828 154.512C89.3828 147.188 96.5117 142.354 106.082 142.354ZM106.082 147.334C99.8809 147.334 95.5352 150.068 95.5352 154.512C95.5352 159.199 99.8809 161.836 106.082 161.836C112.332 161.836 116.629 159.199 116.678 154.512C116.629 150.068 112.332 147.334 106.082 147.334ZM168.656 162.471V167.402H127.982V162.471H168.656ZM163.725 140.889V152.754H139.262V155.342H164.555V160.078H133.061V148.262H157.475V145.674H132.963V140.889H163.725ZM163.92 170.137V184.004H133.207V170.137H163.92ZM139.311 175.068V179.023H157.719V175.068H139.311Z" fill="#8B80FB"/>
<path d="M2.92984 230V217.273H7.71109C10.6291 217.273 12.1935 219.049 12.1935 221.492C12.1935 223.936 10.6115 225.693 7.67593 225.693H5.215V230H2.92984ZM5.215 223.812H7.35953C9.08218 223.812 9.85562 222.846 9.85562 221.492C9.85562 220.121 9.08218 219.189 7.35953 219.189H5.215V223.812ZM17.6694 230.193C14.7866 230.193 13.0288 228.277 13.0288 225.289C13.0288 222.336 14.8218 220.332 17.5464 220.332C19.8843 220.332 21.9058 221.791 21.9058 225.148V225.852H15.2437C15.27 227.478 16.228 228.436 17.687 228.436C18.6714 228.436 19.3394 228.014 19.6206 227.451H21.8179C21.4136 229.104 19.8843 230.193 17.6694 230.193ZM15.2612 224.322H19.7612C19.7437 223.021 18.8823 222.072 17.5816 222.072C16.228 222.072 15.3316 223.101 15.2612 224.322ZM27.5223 230.193C24.6395 230.193 22.8817 228.277 22.8817 225.289C22.8817 222.336 24.6747 220.332 27.3993 220.332C29.7372 220.332 31.7587 221.791 31.7587 225.148V225.852H25.0966C25.1229 227.478 26.0809 228.436 27.5399 228.436C28.5243 228.436 29.1923 228.014 29.4735 227.451H31.6708C31.2665 229.104 29.7372 230.193 27.5223 230.193ZM25.1141 224.322H29.6141C29.5966 223.021 28.7352 222.072 27.4345 222.072C26.0809 222.072 25.1845 223.101 25.1141 224.322ZM33.1389 230V220.455H35.3186V222.037H35.4241C35.758 220.947 36.6897 220.314 37.7795 220.314C38.0256 220.314 38.3772 220.332 38.5881 220.367V222.441C38.3948 222.371 37.9202 222.301 37.551 222.301C36.303 222.301 35.3889 223.162 35.3889 224.375V230H33.1389ZM43.7652 216.658C46.2086 216.658 48.0719 218.24 48.0895 220.49C48.0719 222.433 46.7008 223.865 44.7672 224.234V226.572C46.0855 226.511 47.4127 226.405 48.652 226.238L48.7926 227.697C45.4703 228.295 41.8316 228.312 39.107 228.277L38.8258 226.678C40.0211 226.678 41.3922 226.678 42.816 226.643V224.234C40.8209 223.9 39.441 222.459 39.4586 220.49C39.441 218.24 41.2691 216.658 43.7652 216.658ZM43.7652 218.311C42.3766 218.328 41.357 219.154 41.357 220.49C41.357 221.826 42.3766 222.67 43.7652 222.652C45.1363 222.67 46.1559 221.826 46.1559 220.49C46.1559 219.154 45.1363 218.328 43.7652 218.311ZM51.5172 215.674V222.02H53.8199V223.672H51.5172V231.564H49.566V215.674H51.5172ZM70.6605 215.674V219.699H72.8753V221.334H70.6605V225.254H68.7093V215.674H70.6605ZM70.6605 226.01V231.371H60.3948V226.01H70.6605ZM62.3284 227.557V229.789H68.7269V227.557H62.3284ZM67.5667 217.203V218.768H58.1448V217.203H61.889V215.568H63.8402V217.203H67.5667ZM62.8558 219.348C65.1585 219.348 66.723 220.508 66.7405 222.195C66.723 223.9 65.1585 225.043 62.8558 225.043C60.5355 225.043 58.9534 223.9 58.9534 222.195C58.9534 220.508 60.5355 219.348 62.8558 219.348ZM62.8558 220.824C61.6429 220.824 60.8519 221.334 60.8519 222.195C60.8519 223.074 61.6429 223.584 62.8558 223.584C64.0687 223.584 64.8773 223.074 64.8773 222.195C64.8773 221.334 64.0687 220.824 62.8558 220.824ZM77.2438 217.537C77.2262 221.281 76.8044 224.902 74.695 228.031L73.1657 227.205C74.9235 224.735 75.4333 222.16 75.5563 219.119H73.6227V217.537H77.2438ZM80.7946 217.537C80.7858 218.899 80.7595 220.314 80.6188 221.721H82.2184V216.061H84.0641V230.809H82.2184V223.303H80.4079C80.0563 225.271 79.4147 227.188 78.2458 228.91L76.7516 228.066C78.6589 225.333 79.028 222.274 79.1071 219.119H77.7184V217.537H80.7946ZM87.1403 215.674V231.564H85.2595V215.674H87.1403ZM105.704 215.674V231.564H103.735V215.674H105.704ZM101.836 217.221V218.82H100.307V225.939C101.072 225.887 101.819 225.816 102.539 225.729L102.645 227.188C99.2348 227.732 95.5082 227.803 92.5902 227.803L92.3969 226.203C93.0121 226.203 93.6713 226.194 94.3656 226.186V218.82H92.8187V217.221H101.836ZM96.2465 226.133C96.9496 226.124 97.6703 226.098 98.391 226.062V218.82H96.2465V226.133ZM111.97 216.834C114.124 216.834 115.715 218.627 115.996 221.527H119.019V215.674H120.953V231.582H119.019V223.109H116.013C115.802 226.177 114.185 228.066 111.97 228.066C109.58 228.066 107.892 225.904 107.892 222.441C107.892 219.014 109.58 216.834 111.97 216.834ZM111.97 218.592C110.652 218.592 109.756 220.016 109.773 222.441C109.756 224.885 110.652 226.309 111.97 226.309C113.289 226.309 114.168 224.885 114.185 222.441C114.168 220.016 113.289 218.592 111.97 218.592ZM130.05 216.57C133.46 216.57 135.974 218.275 135.974 220.859C135.974 223.241 133.926 224.832 131.017 225.113V228.031H137.345V229.631H122.825V228.031H129.083V225.113C126.192 224.832 124.144 223.241 124.161 220.859C124.144 218.275 126.657 216.57 130.05 216.57ZM130.05 218.152C127.73 218.135 126.06 219.189 126.077 220.859C126.06 222.582 127.73 223.602 130.05 223.602C132.405 223.602 134.058 222.582 134.058 220.859C134.058 219.189 132.405 218.135 130.05 218.152ZM152.541 228.084V229.684H138.022V228.084H152.541ZM150.819 216.799V221.914H141.696V223.988H151.188V225.535H139.745V220.35H148.885V218.381H139.709V216.799H150.819ZM165.664 215.674V221.703H168.107V223.303H165.664V231.582H163.713V215.674H165.664ZM161.305 217.186V218.768H155.82V226.062C158.29 226.062 160.241 225.939 162.43 225.553L162.658 227.205C160.197 227.627 158.053 227.697 155.187 227.697H153.869V217.186H161.305Z" fill="#8B80FB"/>
<defs>
<linearGradient id="paint0_linear_1095_3402" x1="64.5" y1="83.2199" x2="53.2422" y2="113.035" gradientUnits="userSpaceOnUse">
<stop stop-color="#8B80FB"/>
<stop offset="1" stop-color="#C6C1FF"/>
</linearGradient>
<linearGradient id="paint1_linear_1095_3402" x1="85" y1="0" x2="85" y2="93" gradientUnits="userSpaceOnUse">
<stop stop-color="#8B80FB"/>
<stop offset="1" stop-color="#C6C0FF"/>
</linearGradient>
</defs>
</svg>
