<svg width="20" height="22" viewBox="0 0 20 22" fill="none" xmlns="http://www.w3.org/2000/svg">
<g id="Group 482257">
<path id="Vector" d="M7 18C7 18.7956 7.31607 19.5587 7.87868 20.1213C8.44129 20.6839 9.20435 21 10 21C10.7956 21 11.5587 20.6839 12.1213 20.1213C12.6839 19.5587 13 18.7956 13 18" stroke="black" stroke-width="1.5" stroke-linecap="round" stroke-linejoin="round"/>
<path id="Vector_2" d="M2.63215 8.65C2.63215 6.62109 3.4083 4.67529 4.78984 3.24063C6.17139 1.80598 8.04517 1 9.99898 1C11.9528 1 13.8266 1.80598 15.2081 3.24063C16.5897 4.67529 17.3658 6.62109 17.3658 8.65C17.3658 12.4559 18.215 15.5138 18.8903 16.725C18.9621 16.854 18.9999 17.0003 19 17.1493C19.0001 17.2982 18.9626 17.4446 18.8911 17.5737C18.8196 17.7028 18.7166 17.8102 18.5926 17.885C18.4686 17.9598 18.3278 17.9995 18.1843 18H1.81361C1.67035 17.9991 1.52982 17.9592 1.40607 17.8842C1.28232 17.8092 1.17969 17.7019 1.10843 17.5728C1.03717 17.4437 0.999783 17.2975 1 17.1487C1.00022 17 1.03804 16.8538 1.10967 16.725C1.78394 15.5138 2.63215 12.4548 2.63215 8.65Z" stroke="black" stroke-width="1.5" stroke-linecap="round" stroke-linejoin="round"/>
</g>
</svg>
