<svg width="28" height="28" viewBox="0 0 28 28" fill="none" xmlns="http://www.w3.org/2000/svg">
<g id="Group 482277">
<path id="Vector" d="M21.5 21H6.5C6.10218 21 5.72064 20.8495 5.43934 20.5816C5.15804 20.3137 5 19.9503 5 19.5714V9.57143C5 9.19255 5.15804 8.82919 5.43934 8.56128C5.72064 8.29337 6.10218 8.14286 6.5 8.14286H9.5L11 6H17L18.5 8.14286H21.5C21.8978 8.14286 22.2794 8.29337 22.5607 8.56128C22.842 8.82919 23 9.19255 23 9.57143V19.5714C23 19.9503 22.842 20.3137 22.5607 20.5816C22.2794 20.8495 21.8978 21 21.5 21Z" stroke="black" stroke-width="2" stroke-linecap="round" stroke-linejoin="round"/>
<path id="Vector_2" d="M14 17C15.6569 17 17 15.6569 17 14C17 12.3431 15.6569 11 14 11C12.3431 11 11 12.3431 11 14C11 15.6569 12.3431 17 14 17Z" stroke="black" stroke-width="2" stroke-linecap="round" stroke-linejoin="round"/>
</g>
</svg>
