<svg width="32" height="32" viewBox="0 0 32 32" fill="none" xmlns="http://www.w3.org/2000/svg">
<g id="fill=yes" clip-path="url(#clip0_2433_10904)">
<path id="Union" fill-rule="evenodd" clip-rule="evenodd" d="M5.10571 6.10571C6.93419 4.27723 9.41414 3.25 12 3.25C14.5859 3.25 17.0658 4.27723 18.8943 6.10571C19.8177 7.02907 20.5367 8.11857 21.0223 9.30395C23.3284 9.54703 25.4786 10.6054 27.0802 12.2971C28.7945 14.1078 29.7498 16.5065 29.7499 18.9999V27.2499C29.7499 27.6478 29.5919 28.0293 29.3106 28.3106C29.0293 28.5919 28.6477 28.7499 28.2499 28.7499H20.0001C17.9835 28.7504 16.0162 28.1256 14.3695 26.9615C12.8689 25.9007 11.7017 24.4397 10.9977 22.75H3.75C3.35218 22.75 2.97065 22.592 2.68934 22.3107C2.40803 22.0294 2.25 21.6478 2.25 21.25V13C2.25 10.4141 3.27723 7.93419 5.10571 6.10571ZM12.6386 22.7291C13.2438 23.9234 14.1334 24.9576 15.2354 25.7366C16.6288 26.7216 18.2933 27.2504 19.9997 27.2499H28.2499V19C28.2498 16.8901 27.4415 14.8605 25.9909 13.3283C24.7885 12.0582 23.2205 11.21 21.5193 10.8913C21.6715 11.5784 21.75 12.2852 21.75 13C21.75 15.5859 20.7228 18.0658 18.8943 19.8943C17.2169 21.5717 14.9913 22.5747 12.6386 22.7291ZM13 18C13 18.5523 12.5523 19 12 19C11.4477 19 11 18.5523 11 18C11 17.4477 11.4477 17 12 17C12.5523 17 13 17.4477 13 18ZM8.25 11.625C8.25 9.67049 10.0264 8.25 12 8.25C13.9736 8.25 15.75 9.67049 15.75 11.625C15.75 13.3276 14.402 14.6249 12.75 14.9311V15C12.75 15.4142 12.4142 15.75 12 15.75C11.5858 15.75 11.25 15.4142 11.25 15V14.25C11.25 13.8358 11.5858 13.5 12 13.5C13.3395 13.5 14.25 12.5692 14.25 11.625C14.25 10.6808 13.3395 9.75 12 9.75C10.6605 9.75 9.75 10.6808 9.75 11.625V12C9.75 12.4142 9.41421 12.75 9 12.75C8.58579 12.75 8.25 12.4142 8.25 12V11.625Z" fill="black"/>
</g>
<defs>
<clipPath id="clip0_2433_10904">
<rect width="32" height="32" fill="white"/>
</clipPath>
</defs>
</svg>
