<svg width="16" height="16" viewBox="0 0 16 16" fill="none" xmlns="http://www.w3.org/2000/svg">
<g id="Group 482266">
<path id="Vector" d="M8 14.75H1.81274C1.73882 14.7501 1.6656 14.7356 1.59728 14.7074C1.52896 14.6791 1.46688 14.6377 1.41461 14.5854C1.36233 14.5331 1.32089 14.471 1.29264 14.4027C1.26439 14.3344 1.2499 14.2612 1.25 14.1873V8C1.25 6.20979 1.96116 4.4929 3.22703 3.22703C4.4929 1.96116 6.20979 1.25 8 1.25C8.88642 1.25 9.76417 1.42459 10.5831 1.76381C11.4021 2.10303 12.1462 2.60023 12.773 3.22703C13.3998 3.85382 13.897 4.59794 14.2362 5.41689C14.5754 6.23583 14.75 7.11358 14.75 8C14.75 8.88642 14.5754 9.76417 14.2362 10.5831C13.897 11.4021 13.3998 12.1462 12.773 12.773C12.1462 13.3998 11.4021 13.897 10.5831 14.2362C9.76417 14.5754 8.88642 14.75 8 14.75Z" stroke="black" stroke-linecap="round" stroke-linejoin="round"/>
<path id="Vector_2" d="M8.6875 8C8.6875 8.3797 8.3797 8.6875 8 8.6875C7.6203 8.6875 7.3125 8.3797 7.3125 8C7.3125 7.6203 7.6203 7.3125 8 7.3125C8.3797 7.3125 8.6875 7.6203 8.6875 8Z" fill="black" stroke="black" stroke-width="0.125"/>
<path id="Vector_3" d="M5.6875 8C5.6875 8.3797 5.3797 8.6875 5 8.6875C4.6203 8.6875 4.3125 8.3797 4.3125 8C4.3125 7.6203 4.6203 7.3125 5 7.3125C5.3797 7.3125 5.6875 7.6203 5.6875 8Z" fill="black" stroke="black" stroke-width="0.125"/>
<path id="Vector_4" d="M11.6875 8C11.6875 8.3797 11.3797 8.6875 11 8.6875C10.6203 8.6875 10.3125 8.3797 10.3125 8C10.3125 7.6203 10.6203 7.3125 11 7.3125C11.3797 7.3125 11.6875 7.6203 11.6875 8Z" fill="black" stroke="black" stroke-width="0.125"/>
</g>
</svg>
