<svg width="18" height="18" viewBox="0 0 18 18" fill="none" xmlns="http://www.w3.org/2000/svg">
<g id="Property 1=off" clip-path="url(#clip0_1808_1769)">
<path id="Vector" d="M3.375 2.8125L14.625 15.1875" stroke="black" stroke-linecap="round" stroke-linejoin="round"/>
<path id="Vector_2" d="M10.8921 11.0814C10.3402 11.5833 9.61144 11.8453 8.86629 11.8098C8.12114 11.7743 7.4206 11.4443 6.91878 10.8923C6.41696 10.3403 6.15497 9.6116 6.19044 8.86645C6.22591 8.1213 6.55594 7.42076 7.10792 6.91895" stroke="black" stroke-linecap="round" stroke-linejoin="round"/>
<path id="Vector_3" d="M9.52954 6.2373C10.1275 6.35181 10.6721 6.65724 11.0816 7.10772C11.4912 7.5582 11.7435 8.12939 11.8006 8.73551" stroke="black" stroke-linecap="round" stroke-linejoin="round"/>
<path id="Vector_4" d="M14.6679 11.8899C16.2007 10.5174 16.875 9.00001 16.875 9.00001C16.875 9.00001 14.625 3.93751 8.99996 3.93751C8.51285 3.93684 8.02651 3.97635 7.5459 4.05563" stroke="black" stroke-linecap="round" stroke-linejoin="round"/>
<path id="Vector_5" d="M5.20312 4.82324C2.33648 6.27449 1.125 8.9998 1.125 8.9998C1.125 8.9998 3.375 14.0623 9 14.0623C10.318 14.0726 11.6195 13.769 12.7969 13.1764" stroke="black" stroke-linecap="round" stroke-linejoin="round"/>
</g>
<defs>
<clipPath id="clip0_1808_1769">
<rect width="18" height="18" fill="white"/>
</clipPath>
</defs>
</svg>
