<svg width="24" height="24" viewBox="0 0 24 24" fill="none" xmlns="http://www.w3.org/2000/svg">
<g id="Clip path group">
<mask id="mask0_4172_18513" style="mask-type:luminance" maskUnits="userSpaceOnUse" x="0" y="0" width="24" height="24">
<g id="uuid-b8b773be-5f84-4f5a-aa94-6a21d346ed8d">
<path id="Vector" d="M24 0H0V24H24V0Z" fill="white"/>
</g>
</mask>
<g mask="url(#mask0_4172_18513)">
<g id="Group">
<path id="Vector_2" d="M19.5826 10.1399C19.3726 11.4374 19.3351 12.7499 19.4701 14.0549C19.4851 14.2649 19.5001 14.4899 19.5001 14.7074C19.5001 16.3799 18.7051 17.9774 17.3026 19.1474C15.9001 20.3174 13.9876 20.9924 12.0001 20.9924C10.0126 20.9924 8.1076 20.3324 6.6976 19.1474C5.2876 17.9624 4.5001 16.3724 4.5001 14.7074C4.5001 14.4899 4.5151 14.2649 4.5301 14.0549C4.6651 12.7499 4.6276 11.4374 4.4176 10.1399C4.34108 9.66982 4.32132 9.25654 4.32712 8.92105C4.33587 8.41435 4.31503 7.92502 4.77828 8.13051C5.44111 8.42453 6.90996 8.27987 7.26492 7.64758C8.27989 5.83963 10.6137 4.46165 11.5747 3.95065C11.8425 3.80825 12.156 3.8115 12.4213 3.95859C13.3722 4.48581 15.6825 5.89544 16.7113 7.65625C17.0771 8.28233 18.5591 8.42453 19.2219 8.13051C19.6852 7.92502 19.6643 8.41435 19.6731 8.92105C19.6789 9.25654 19.6591 9.66982 19.5826 10.1399Z" fill="#FF5247"/>
<path id="Vector_3" d="M8.25 17.8575C8.25 18.69 8.6475 19.4925 9.345 20.0775C10.05 20.67 11.0025 21 12 21C12.9975 21 13.95 20.67 14.655 20.0775C15.36 19.485 15.75 18.69 15.75 17.8575C15.75 15.3816 13.4222 13.6879 12.4347 13.0807C12.1656 12.9153 11.8344 12.9153 11.5653 13.0807C10.5778 13.6879 8.25 15.3816 8.25 17.8575Z" fill="#FFD74B"/>
</g>
</g>
</g>
</svg>
