<svg width="24" height="24" viewBox="0 0 24 24" fill="none" xmlns="http://www.w3.org/2000/svg">
<g id="Clip path group">
<mask id="mask0_5926_20243" style="mask-type:luminance" maskUnits="userSpaceOnUse" x="0" y="0" width="24" height="24">
<g id="uuid-b8b773be-5f84-4f5a-aa94-6a21d346ed8d">
<path id="Vector" d="M24 0H0V24H24V0Z" fill="white"/>
</g>
</mask>
<g mask="url(#mask0_5926_20243)">
<g id="Group">
<path id="Vector_2" d="M19.5825 10.1401C19.3725 11.4376 19.335 12.7501 19.47 14.0551C19.485 14.2651 19.5 14.4901 19.5 14.7076C19.5 16.3801 18.705 17.9776 17.3025 19.1476C15.9 20.3176 13.9875 20.9926 12 20.9926C10.0125 20.9926 8.10751 20.3326 6.69751 19.1476C5.28751 17.9626 4.50001 16.3726 4.50001 14.7076C4.50001 14.4901 4.51501 14.2651 4.53001 14.0551C4.66501 12.7501 4.62751 11.4376 4.41751 10.1401C4.34099 9.67006 4.32123 9.25678 4.32702 8.9213C4.33578 8.41459 4.31494 7.92526 4.77819 8.13075C5.44102 8.42477 6.90987 8.28011 7.26483 7.64782C8.2798 5.83988 10.6136 4.4619 11.5746 3.9509C11.8424 3.80849 12.1559 3.81175 12.4212 3.95883C13.3721 4.48606 15.6824 5.89568 16.7112 7.6565C17.077 8.28257 18.559 8.42477 19.2218 8.13075C19.6851 7.92526 19.6642 8.41459 19.673 8.9213C19.6788 9.25678 19.659 9.67006 19.5825 10.1401Z" fill="#8D8E8F"/>
<path id="Vector_3" d="M8.25 17.8575C8.25 18.69 8.6475 19.4925 9.345 20.0775C10.05 20.67 11.0025 21 12 21C12.9975 21 13.95 20.67 14.655 20.0775C15.36 19.485 15.75 18.69 15.75 17.8575C15.75 15.3816 13.4222 13.6879 12.4347 13.0807C12.1656 12.9153 11.8344 12.9153 11.5653 13.0807C10.5778 13.6879 8.25 15.3816 8.25 17.8575Z" fill="#DBDCDD"/>
</g>
</g>
</g>
</svg>
