<svg width="13" height="20" viewBox="0 0 13 20" fill="none" xmlns="http://www.w3.org/2000/svg">
<g id="Group 482279">
<g id="Group 482280">
<g id="Group 482278">
<path id="Vector" d="M11.4922 5.88136V1.61017C11.4922 1.44834 11.4292 1.29314 11.3171 1.17871C11.2051 1.06429 11.053 1 10.8945 1H1.59766C1.43915 1 1.28713 1.06429 1.17505 1.17871C1.06297 1.29314 1 1.44834 1 1.61017V5.33898" stroke="black" stroke-width="1.5" stroke-linecap="round" stroke-linejoin="round"/>
</g>
<g id="Group 482279_2">
<path id="Vector_2" d="M1 5.33898L1 8.38983C1 8.55166 1.06297 8.70686 1.17505 8.82128C1.28713 8.93571 1.43915 9 1.59766 9L10.8945 9C11.053 9 11.2051 8.93571 11.3171 8.82129C11.4292 8.70686 11.4922 8.55166 11.4922 8.38983L11.4922 5.33898" stroke="black" stroke-width="1.5" stroke-linecap="round" stroke-linejoin="round"/>
</g>
</g>
<path id="Vector_3" d="M10 9L10 15.625L2 19L2 9" stroke="black" stroke-width="1.5" stroke-linecap="round" stroke-linejoin="round"/>
</g>
</svg>
