<svg width="32" height="32" viewBox="0 0 32 32" fill="none" xmlns="http://www.w3.org/2000/svg">
<g id="fill=no" clip-path="url(#clip0_2433_10806)">
<path id="Vector" d="M19 26V20C19 19.7348 18.8946 19.4804 18.7071 19.2929C18.5196 19.1053 18.2652 19 18 19H14C13.7348 19 13.4804 19.1053 13.2929 19.2929C13.1054 19.4804 13 19.7348 13 20V26C13 26.2652 12.8946 26.5196 12.7071 26.7071C12.5196 26.8946 12.2652 27 12 27H6C5.73478 27 5.48043 26.8946 5.29289 26.7071C5.10536 26.5196 5 26.2652 5 26V14.4425C5.00001 14.3031 5.02915 14.1653 5.08555 14.0379C5.14195 13.9104 5.22436 13.7962 5.3275 13.7025L15.3275 4.25998C15.5116 4.09239 15.7516 3.99951 16.0006 3.99951C16.2496 3.99951 16.4896 4.09239 16.6737 4.25998L26.6737 13.7025C26.7769 13.7962 26.8593 13.9104 26.9157 14.0379C26.9721 14.1653 27.0012 14.3031 27.0012 14.4425V26C27.0012 26.2652 26.8959 26.5196 26.7084 26.7071C26.5208 26.8946 26.2665 27 26.0012 27H20C19.7348 27 19.4804 26.8946 19.2929 26.7071C19.1054 26.5196 19 26.2652 19 26Z" stroke="black" stroke-width="1.5" stroke-linecap="round" stroke-linejoin="round"/>
</g>
<defs>
<clipPath id="clip0_2433_10806">
<rect width="32" height="32" fill="white"/>
</clipPath>
</defs>
</svg>
