<svg width="24" height="21" viewBox="0 0 24 21" fill="none" xmlns="http://www.w3.org/2000/svg">
<g id="icon-user-mono">
<path id="Vector" fill-rule="evenodd" clip-rule="evenodd" d="M17.0781 7.20572C17.0782 7.8855 16.9443 8.55864 16.6843 9.18671C16.4242 9.81477 16.0429 10.3855 15.5623 10.8662C15.0817 11.3469 14.5111 11.7283 13.8831 11.9885C13.255 12.2487 12.5819 12.3826 11.9021 12.3827C10.5293 12.3829 9.21256 11.8376 8.24168 10.8669C7.27081 9.89626 6.7253 8.57966 6.72516 7.20678C6.72509 6.52699 6.85891 5.85385 7.11899 5.22579C7.37907 4.59773 7.7603 4.02704 8.24093 3.54631C9.21161 2.57544 10.5282 2.02993 11.9011 2.02979C13.274 2.02964 14.5907 2.57489 15.5616 3.54556C16.5324 4.51624 17.0779 5.83284 17.0781 7.20572ZM11.9016 13.9663C4.4473 13.9663 1.54764 18.7103 1.54764 20.9173C1.54764 23.1232 7.72026 23.7112 11.9016 23.7112C16.083 23.7112 22.2556 23.1232 22.2556 20.9173C22.2556 18.7103 19.3559 13.9663 11.9016 13.9663Z" fill="#E2E5E9"/>
</g>
</svg>
