<svg width="18" height="18" viewBox="0 0 18 18" fill="none" xmlns="http://www.w3.org/2000/svg">
<g id="18px/icon-dots-mono">
<path id="Vector" fill-rule="evenodd" clip-rule="evenodd" d="M10.5011 14.25C10.5011 14.447 10.4622 14.6421 10.3868 14.8241C10.3113 15.0062 10.2008 15.1715 10.0614 15.3108C9.92206 15.4501 9.75663 15.5606 9.57458 15.6359C9.39252 15.7113 9.19741 15.75 9.00038 15.75C8.80335 15.75 8.60826 15.7111 8.42624 15.6356C8.24423 15.5602 8.07885 15.4496 7.93957 15.3103C7.80028 15.1709 7.6898 15.0055 7.61445 14.8234C7.53909 14.6414 7.50033 14.4463 7.50038 14.2493C7.50048 13.8513 7.65865 13.4697 7.9401 13.1884C8.22154 12.9071 8.60321 12.7492 9.00113 12.7492C9.39905 12.7493 9.78064 12.9075 10.0619 13.189C10.3433 13.4704 10.5012 13.8521 10.5011 14.25ZM10.5011 9C10.5011 9.39782 10.3431 9.77936 10.0618 10.0607C9.78049 10.342 9.39896 10.5 9.00113 10.5C8.60331 10.5 8.22178 10.342 7.94047 10.0607C7.65917 9.77936 7.50113 9.39782 7.50113 9C7.50113 8.60218 7.65917 8.22064 7.94047 7.93934C8.22178 7.65804 8.60331 7.5 9.00113 7.5C9.39896 7.5 9.78049 7.65804 10.0618 7.93934C10.3431 8.22064 10.5011 8.60218 10.5011 9ZM10.5007 3.75075C10.5007 3.94778 10.4618 4.14287 10.3864 4.32489C10.311 4.5069 10.2004 4.67228 10.061 4.81156C9.92168 4.95085 9.75625 5.06133 9.5742 5.13668C9.39214 5.21204 9.19703 5.2508 9 5.25075C8.80297 5.2507 8.60788 5.21184 8.42586 5.1364C8.24384 5.06095 8.07847 4.95039 7.93918 4.81103C7.7999 4.67168 7.68942 4.50625 7.61407 4.3242C7.53871 4.14214 7.49995 3.94703 7.5 3.75C7.5001 3.35207 7.65827 2.97049 7.93971 2.68918C8.22116 2.40788 8.60283 2.2499 9.00075 2.25C9.39867 2.2501 9.78026 2.40827 10.0616 2.68971C10.3429 2.97116 10.5008 3.35282 10.5007 3.75075Z" fill="black"/>
</g>
</svg>
