<svg width="14" height="16" viewBox="0 0 14 16" fill="none" xmlns="http://www.w3.org/2000/svg">
<g id="Group 482259">
<path id="Vector" d="M11.6667 7H2.33333C1.59695 7 1 7.65122 1 8.45455V13.5455C1 14.3488 1.59695 15 2.33333 15H11.6667C12.403 15 13 14.3488 13 13.5455V8.45455C13 7.65122 12.403 7 11.6667 7Z" stroke="black" stroke-linecap="round" stroke-linejoin="round"/>
<path id="Vector_2" d="M3 7V4.33333C3 3.44928 3.42143 2.60143 4.17157 1.97631C4.92172 1.35119 5.93913 1 7 1C8.06087 1 9.07828 1.35119 9.82843 1.97631C10.5786 2.60143 11 3.44928 11 4.33333V7" stroke="black" stroke-linecap="round" stroke-linejoin="round"/>
</g>
</svg>
