<svg width="32" height="32" viewBox="0 0 32 32" fill="none" xmlns="http://www.w3.org/2000/svg">
<g id="uuid-899513ff-4f75-4769-b4f3-37b40ab8b7e3">
<g id="Clip path group">
<mask id="mask0_2433_10987" style="mask-type:luminance" maskUnits="userSpaceOnUse" x="0" y="0" width="32" height="32">
<g id="uuid-fa690692-593c-476b-a58d-2f3ad9d60116">
<path id="Vector" d="M32 0H0V32H32V0Z" fill="white"/>
</g>
</mask>
<g mask="url(#mask0_2433_10987)">
<g id="Group">
<path id="Vector_2" d="M16 18.75C19.7279 18.75 22.75 15.7279 22.75 12C22.75 8.27208 19.7279 5.25 16 5.25C12.2721 5.25 9.25 8.27208 9.25 12C9.25 15.7279 12.2721 18.75 16 18.75Z" fill="black"/>
<path id="Vector_3" d="M16 1.25C10.07 1.25 5.25 6.07 5.25 12C5.25 15.37 6.81 18.39 9.25 20.35V30C9.25 30.26 9.38 30.5 9.61 30.64C9.73 30.71 9.86 30.75 10 30.75C10.11 30.75 10.23 30.72 10.34 30.67L16 27.84L21.66 30.67C21.9 30.79 22.17 30.77 22.39 30.64C22.62 30.5 22.75 30.26 22.75 30V20.35C25.19 18.39 26.75 15.37 26.75 12C26.75 6.07 21.93 1.25 16 1.25ZM21.74 19.25C20.16 20.5 18.17 21.25 16 21.25C13.83 21.25 11.84 20.5 10.26 19.25C8.12 17.55 6.75 14.93 6.75 12C6.75 6.9 10.9 2.75 16 2.75C21.1 2.75 25.25 6.9 25.25 12C25.25 14.93 23.88 17.55 21.74 19.25Z" fill="black"/>
</g>
</g>
</g>
</g>
</svg>
