<svg width="18" height="21" viewBox="0 0 18 21" fill="none" xmlns="http://www.w3.org/2000/svg">
<g id="Group 482267">
<path id="Vector" d="M6 11H12" stroke="black" stroke-width="1.5" stroke-linecap="round" stroke-linejoin="round"/>
<path id="Vector_2" d="M6 14H12" stroke="black" stroke-width="1.5" stroke-linecap="round" stroke-linejoin="round"/>
<path id="Vector_3" d="M2.25 3H15.75C15.9489 3 16.1397 3.07902 16.2803 3.21967C16.421 3.36032 16.5 3.55109 16.5 3.75V17.7498C16.5 18.3466 16.2629 18.9189 15.841 19.3408C15.419 19.7628 14.8467 19.9998 14.25 19.9998H3.75C3.15326 19.9998 2.58097 19.7628 2.15901 19.3408C1.73705 18.9189 1.5 18.3466 1.5 17.7498V3.75C1.5 3.55109 1.57902 3.36032 1.71967 3.21967C1.86032 3.07902 2.05109 3 2.25 3Z" stroke="black" stroke-width="1.5" stroke-linecap="round" stroke-linejoin="round"/>
<path id="Vector_4" d="M5 1V4" stroke="black" stroke-width="1.5" stroke-linecap="round" stroke-linejoin="round"/>
<path id="Vector_5" d="M9 1V4" stroke="black" stroke-width="1.5" stroke-linecap="round" stroke-linejoin="round"/>
<path id="Vector_6" d="M13 1V4" stroke="black" stroke-width="1.5" stroke-linecap="round" stroke-linejoin="round"/>
</g>
</svg>
