<svg width="18" height="20" viewBox="0 0 18 20" fill="none" xmlns="http://www.w3.org/2000/svg">
<g id="Group 482278">
<path id="Vector" d="M9.00626 11.3236C10.0296 11.3236 10.8592 10.494 10.8592 9.47062C10.8592 8.44727 10.0296 7.61768 9.00626 7.61768C7.98291 7.61768 7.15332 8.44727 7.15332 9.47062C7.15332 10.494 7.98291 11.3236 9.00626 11.3236Z" stroke="black" stroke-width="1.5" stroke-linecap="round" stroke-linejoin="round"/>
<path id="Vector_2" d="M9.00635 11.5884L9.00635 19.0001" stroke="black" stroke-width="1.5" stroke-linecap="round" stroke-linejoin="round"/>
<path id="Vector_3" d="M4.06888 5.08454L1.56415 9.16081C1.51187 9.26654 1.48969 9.38462 1.50004 9.50212C1.51038 9.61961 1.55286 9.732 1.62281 9.82697L9.00603 19.0023L16.4453 9.82485C16.5152 9.72988 16.5577 9.6175 16.568 9.5C16.5784 9.3825 16.5562 9.26443 16.5039 9.15869L14 5.08242L4.06888 5.08454Z" stroke="black" stroke-width="1.5" stroke-linecap="round" stroke-linejoin="round"/>
<path id="Vector_4" d="M14 5V1.64286C14 1.47236 13.9323 1.30885 13.8117 1.18829C13.6911 1.06773 13.5276 1 13.3571 1H4.64286C4.47236 1 4.30885 1.06773 4.18829 1.18829C4.06773 1.30885 4 1.47236 4 1.64286V5" stroke="black" stroke-width="1.5" stroke-linecap="round" stroke-linejoin="round"/>
</g>
</svg>
