<svg width="19" height="19" viewBox="0 0 19 19" fill="none" xmlns="http://www.w3.org/2000/svg">
<g id="Group 482261">
<path id="Vector" d="M6 18H1.5C1.30109 18 1.11032 17.921 0.96967 17.7803C0.829018 17.6397 0.75 17.4489 0.75 17.25V13.3104C0.750092 13.1118 0.828988 12.9213 0.969375 12.7807L12.5306 1.2195C12.6713 1.07895 12.862 1 13.0608 1C13.2596 1 13.4503 1.07895 13.5909 1.2195L17.7806 5.40637C17.9212 5.54701 18.0001 5.7377 18.0001 5.93653C18.0001 6.13535 17.9212 6.32605 17.7806 6.46668L6 18Z" stroke="black" stroke-width="1.5" stroke-linecap="round" stroke-linejoin="round"/>
<path id="Vector_2" d="M17.25 18H6" stroke="black" stroke-width="1.5" stroke-linecap="round" stroke-linejoin="round"/>
<path id="Vector_3" d="M9.75 4L15 9.25" stroke="black" stroke-width="1.5" stroke-linecap="round" stroke-linejoin="round"/>
</g>
</svg>
