<svg width="16" height="20" viewBox="0 0 16 20" fill="none" xmlns="http://www.w3.org/2000/svg">
<g id="Group 482260">
<path id="Vector" d="M12 9H14.3C14.4857 9 14.6637 9.07526 14.795 9.20921C14.9263 9.34316 15 9.52485 15 9.71429V18.2857C15 18.4752 14.9263 18.6568 14.795 18.7908C14.6637 18.9247 14.4857 19 14.3 19H1.7C1.51435 19 1.3363 18.9247 1.20503 18.7908C1.07375 18.6568 1 18.4752 1 18.2857V9.71429C1 9.52485 1.07375 9.34316 1.20503 9.20921C1.3363 9.07526 1.51435 9 1.7 9H4" stroke="black" stroke-width="1.5" stroke-linecap="round" stroke-linejoin="round"/>
<path id="Vector_2" d="M4 5L8 1L12 5" stroke="black" stroke-width="1.5" stroke-linecap="round" stroke-linejoin="round"/>
<path id="Vector_3" d="M8 1V12" stroke="black" stroke-width="1.5" stroke-linecap="round" stroke-linejoin="round"/>
</g>
</svg>
