<svg width="20" height="20" viewBox="0 0 20 20" fill="none" xmlns="http://www.w3.org/2000/svg">
<g id="Group 482272">
<g id="Group 482273">
<path id="Vector" d="M15.2566 8.32629L15.7452 8.81586C15.894 8.96461 16.012 9.14122 16.0925 9.33559C16.173 9.52996 16.2145 9.73829 16.2145 9.94868C16.2145 10.1591 16.173 10.3674 16.0925 10.5618C16.012 10.7562 15.894 10.9328 15.7452 11.0815L14.8441 11.9826C14.6939 12.1327 14.4903 12.217 14.278 12.217C14.0656 12.217 13.862 12.1327 13.7118 11.9826L7.6387 5.90646C7.48861 5.75627 7.4043 5.55262 7.4043 5.34029C7.4043 5.12796 7.48861 4.92432 7.6387 4.77413L8.53975 3.87308C8.68851 3.72429 8.86511 3.60626 9.05948 3.52574C9.25386 3.44522 9.46219 3.40377 9.67258 3.40377C9.88297 3.40377 10.0913 3.44522 10.2857 3.52574C10.48 3.60626 10.6567 3.72429 10.8054 3.87308L11.295 4.36165L13.7979 1.84871C14.8782 0.768445 16.6382 0.702367 17.7465 1.74859C18.019 2.006 18.237 2.31543 18.3878 2.65858C18.5385 3.00172 18.6189 3.37162 18.6243 3.74639C18.6296 4.12115 18.5597 4.49318 18.4187 4.84047C18.2778 5.18776 18.0686 5.50325 17.8036 5.76829L15.2566 8.32629Z" stroke="black" stroke-width="2" stroke-linecap="round" stroke-linejoin="round"/>
<path id="Vector_2" d="M12.9421 11.207L7.26747 16.8826C6.85595 17.2955 6.33958 17.5883 5.77397 17.7294C5.20837 17.8705 4.61497 17.8547 4.05772 17.6835L2.05537 18.5586C1.90785 18.6231 1.7443 18.6416 1.58606 18.6118C1.42782 18.582 1.28225 18.5052 1.16834 18.3914C1.08659 18.3096 1.0314 18.2051 1.00996 18.0915C0.988531 17.9779 1.00186 17.8605 1.0482 17.7546L1.96827 15.6462C1.77726 15.0803 1.74823 14.4723 1.88444 13.8908C2.02066 13.3093 2.31671 12.7775 2.73917 12.3553L8.41481 6.68066" stroke="black" stroke-width="2" stroke-linecap="round" stroke-linejoin="round"/>
</g>
</g>
</svg>
