<svg width="16" height="16" viewBox="0 0 16 16" fill="none" xmlns="http://www.w3.org/2000/svg">
<g id="Group 482265">
<path id="Vector" d="M1.25 7.0625H4.625V14.5625H1.25C1.10082 14.5625 0.957742 14.5032 0.852252 14.3977C0.746763 14.2923 0.6875 14.1492 0.6875 14V7.625C0.6875 7.47582 0.746763 7.33274 0.852252 7.22725C0.957742 7.12176 1.10082 7.0625 1.25 7.0625Z" stroke="black" stroke-linecap="round" stroke-linejoin="round"/>
<path id="Vector_2" d="M4.625 6.875L7.25 1.25C7.84674 1.25 8.60653 1.48705 9.02849 1.90901C9.5 2.375 9.5 2.90326 9.5 3.5L9.5 5.5625H14.1875C14.3471 5.56254 14.5048 5.59654 14.6503 5.66223C14.7957 5.72792 14.9255 5.8238 15.031 5.9435C15.1366 6.0632 15.2154 6.20399 15.2624 6.35651C15.3093 6.50903 15.3233 6.66979 15.3034 6.82812L14.4596 13.5781C14.4254 13.8499 14.2931 14.0999 14.0877 14.2811C13.8822 14.4624 13.6177 14.5624 13.3437 14.5625H4.625" stroke="black" stroke-linecap="round" stroke-linejoin="round"/>
</g>
</svg>
