<svg width="22" height="20" viewBox="0 0 22 20" fill="none" xmlns="http://www.w3.org/2000/svg">
<g id="Group 482265">
<path id="Vector" d="M2 8.75H6.5V18.75H2C1.80109 18.75 1.61032 18.671 1.46967 18.5303C1.32902 18.3897 1.25 18.1989 1.25 18V9.5C1.25 9.30109 1.32902 9.11032 1.46967 8.96967C1.61032 8.82902 1.80109 8.75 2 8.75Z" stroke="black" stroke-width="1.5" stroke-linecap="round" stroke-linejoin="round"/>
<g id="Vector_2">
<path d="M6.5 8.5L10 1C10.7956 1 11.8087 1.31607 12.3713 1.87868C12.9339 2.44129 13 3.20435 13 4V6.75H19.25C19.4628 6.75006 19.6731 6.79539 19.867 6.88297C20.0609 6.97056 20.234 7.0984 20.3747 7.258C20.5154 7.4176 20.6206 7.60532 20.6832 7.80868C20.7458 8.01204 20.7644 8.22639 20.7378 8.4375L19.6128 17.4375C19.5672 17.7999 19.3908 18.1332 19.1169 18.3749C18.843 18.6165 18.4903 18.7499 18.125 18.75H6.5" fill="black"/>
<path d="M6.5 8.5L10 1C10.7956 1 11.8087 1.31607 12.3713 1.87868C12.9339 2.44129 13 3.20435 13 4V6.75H19.25C19.4628 6.75006 19.6731 6.79539 19.867 6.88297C20.0609 6.97056 20.234 7.0984 20.3747 7.258C20.5154 7.4176 20.6206 7.60532 20.6832 7.80868C20.7458 8.01204 20.7644 8.22639 20.7378 8.4375L19.6128 17.4375C19.5672 17.7999 19.3908 18.1332 19.1169 18.3749C18.843 18.6165 18.4903 18.7499 18.125 18.75H6.5" stroke="black" stroke-width="1.5" stroke-linecap="round" stroke-linejoin="round"/>
</g>
</g>
</svg>
