<svg width="32" height="32" viewBox="0 0 32 32" fill="none" xmlns="http://www.w3.org/2000/svg">
<g id="uuid-bb43cca7-0b9e-464a-b340-5144d24f789c">
<g id="Clip path group">
<mask id="mask0_2437_10564" style="mask-type:luminance" maskUnits="userSpaceOnUse" x="0" y="0" width="32" height="32">
<g id="uuid-1a2b634d-da6f-4dbf-9ffc-a4a59250f4e7">
<path id="Vector" d="M32 0H0V32H32V0Z" fill="white"/>
</g>
</mask>
<g mask="url(#mask0_2437_10564)">
<g id="Group">
<path id="Vector_2" d="M30.5998 17.55C29.8298 16.52 28.8198 15.68 27.6898 15.12C27.4398 14.99 27.1698 14.88 26.9098 14.78C28.0598 13.91 28.8198 12.55 28.8198 11C28.8198 8.38 26.6898 6.25 24.0698 6.25C21.4498 6.25 19.3198 8.38 19.3198 11C19.3198 11.33 19.3498 11.62 19.4098 11.9C19.4498 12.1 19.5698 12.27 19.7398 12.38C20.7598 13.04 21.5798 13.98 22.0998 15.1C22.1198 15.15 22.1698 15.19 22.1998 15.24C22.2098 15.28 22.1998 15.32 22.2198 15.36C22.5798 16.17 22.7698 17.07 22.7698 18.01C22.7698 18.42 23.1098 18.76 23.5198 18.76H30.0198C30.2998 18.76 30.5598 18.6 30.6898 18.34C30.8198 18.09 30.7898 17.78 30.6198 17.55H30.5998Z" fill="black"/>
<path id="Vector_3" d="M9.24989 18C9.24989 17.09 9.42989 16.22 9.77989 15.39C9.79989 15.34 9.79989 15.3 9.80989 15.25C9.84989 15.2 9.89989 15.15 9.91989 15.1C10.4399 13.98 11.2599 13.04 12.2799 12.38C12.4499 12.27 12.5699 12.1 12.6099 11.9C12.6699 11.62 12.6999 11.33 12.6999 11C12.6999 8.38 10.5699 6.25 7.94989 6.25C5.32989 6.25 3.19989 8.38 3.19989 11C3.19989 12.55 3.94989 13.91 5.11989 14.78C4.84989 14.88 4.57989 14.99 4.32989 15.12C3.19989 15.68 2.18989 16.52 1.40989 17.55C1.23989 17.78 1.20989 18.08 1.33989 18.34C1.46989 18.6 1.72989 18.76 2.00989 18.76H8.50989C8.91989 18.76 9.25989 18.42 9.25989 18.01L9.24989 18Z" fill="black"/>
<path id="Vector_4" d="M20.3999 23.42C19.9899 23.18 19.5499 23 19.0999 22.83C20.6899 21.81 21.7399 20.02 21.7399 18C21.7399 14.83 19.1599 12.25 15.9899 12.25C12.8199 12.25 10.2399 14.83 10.2399 18C10.2399 20.03 11.2999 21.81 12.8799 22.83C12.4299 22.99 11.9999 23.18 11.5799 23.42C10.2399 24.19 9.11986 25.29 8.33986 26.62C8.19986 26.85 8.19986 27.14 8.33986 27.37C8.46986 27.6 8.71986 27.75 8.98986 27.75H22.9899C23.2599 27.75 23.5099 27.61 23.6399 27.37C23.7699 27.14 23.7699 26.85 23.6399 26.62C22.8599 25.29 21.7399 24.19 20.3999 23.42Z" fill="black"/>
</g>
</g>
</g>
</g>
</svg>
