<svg width="32" height="32" viewBox="0 0 32 32" fill="none" xmlns="http://www.w3.org/2000/svg">
<g id="fill=yes" clip-path="url(#clip0_2437_10575)">
<path id="Union" fill-rule="evenodd" clip-rule="evenodd" d="M16 3.25C11.1675 3.25 7.25 7.16751 7.25 12C7.25 15.4016 9.19098 18.3498 12.0258 19.7975C8.31808 20.8487 5.25178 23.3397 3.35087 26.6243C3.21658 26.8564 3.21636 27.1424 3.35029 27.3747C3.48421 27.6069 3.73191 27.75 4 27.75H28C28.2681 27.75 28.5158 27.6069 28.6497 27.3747C28.7836 27.1424 28.7834 26.8564 28.6491 26.6243C26.7482 23.3397 23.6819 20.8487 19.9742 19.7975C22.809 18.3498 24.75 15.4016 24.75 12C24.75 7.16751 20.8325 3.25 16 3.25Z" fill="black"/>
</g>
<defs>
<clipPath id="clip0_2437_10575">
<rect width="32" height="32" fill="white"/>
</clipPath>
</defs>
</svg>
