<svg width="18" height="18" viewBox="0 0 18 18" fill="none" xmlns="http://www.w3.org/2000/svg">
<g id="18px/WarningCircle" clip-path="url(#clip0_1808_1990)">
<path id="Vector" d="M9 1C7.41775 1 5.87103 1.46919 4.55544 2.34824C3.23985 3.22729 2.21447 4.47672 1.60897 5.93853C1.00347 7.40034 0.84504 9.00887 1.15372 10.5607C1.4624 12.1126 2.22433 13.538 3.34315 14.6569C4.46197 15.7757 5.88743 16.5376 7.43928 16.8463C8.99113 17.155 10.5997 16.9965 12.0615 16.391C13.5233 15.7855 14.7727 14.7602 15.6518 13.4446C16.5308 12.129 17 10.5822 17 9C16.9978 6.87895 16.1542 4.84542 14.6544 3.34562C13.1546 1.84581 11.121 1.00224 9 1ZM8.38462 5.30769C8.38462 5.14448 8.44945 4.98796 8.56486 4.87255C8.68027 4.75714 8.83679 4.69231 9 4.69231C9.16321 4.69231 9.31974 4.75714 9.43515 4.87255C9.55055 4.98796 9.61539 5.14448 9.61539 5.30769V9.61538C9.61539 9.77859 9.55055 9.93512 9.43515 10.0505C9.31974 10.1659 9.16321 10.2308 9 10.2308C8.83679 10.2308 8.68027 10.1659 8.56486 10.0505C8.44945 9.93512 8.38462 9.77859 8.38462 9.61538V5.30769ZM9 13.3077C8.81743 13.3077 8.63897 13.2536 8.48717 13.1521C8.33537 13.0507 8.21706 12.9065 8.14719 12.7379C8.07732 12.5692 8.05904 12.3836 8.09466 12.2045C8.13028 12.0255 8.21819 11.861 8.34729 11.7319C8.47638 11.6028 8.64086 11.5149 8.81992 11.4793C8.99898 11.4437 9.18458 11.4619 9.35325 11.5318C9.52192 11.6017 9.66608 11.72 9.76751 11.8718C9.86894 12.0236 9.92308 12.202 9.92308 12.3846C9.92308 12.6294 9.82583 12.8642 9.65272 13.0373C9.4796 13.2104 9.24482 13.3077 9 13.3077Z" fill="black"/>
</g>
<defs>
<clipPath id="clip0_1808_1990">
<rect width="18" height="18" fill="white"/>
</clipPath>
</defs>
</svg>
